# xmcd
#
# Track frame offsets: 
#        150
#        5172
#        21669
#        28014
#        45645
#        47994
#        71565
#        80745
#        103884
#        105639
#        126753
#        128886
#        147489
#        173463
#        174273
#        188772
#        189204
#        207078
#        211263
#        232593
#        240531
#
# Disc length: 3468 seconds
#
# Revision: 0
# Processed by: cddbd v1.5.2PL0 Copyright (c) Steve Scherf et al.
# Submitted via: ExactAudioCopy v0.95b3
#
DISCID=220d8a15
DTITLE=The Beatles  - The Days In Their Life - Vol.20  FLAC
DYEAR=1900
DGENRE=
TTITLE0=Narrative
TTITLE1=Cookin' (In The Kitchen Of Love) (Ringo Starr)
TTITLE2=Narrative
TTITLE3=Crackerbox Palace (George Harrison)
TTITLE4=Narrative
TTITLE5=Maybe I'm Amazed (Wings)
TTITLE6=Narrative
TTITLE7=Drowning In The Sea Of Love (Ringo Starr)
TTITLE8=Narrative
TTITLE9=Mull Of Kintyre (Paul McCartney And Wings)
TTITLE10=Narrative
TTITLE11=London Town (Wings)
TTITLE12=NarrativeWith A Little Luck (Wings)
TTITLE13=Narrative
TTITLE14=Bad Boy (Ringo Starr)
TTITLE15=Narrative
TTITLE16=Blow Away (George Harrison)
TTITLE17=Narrative
TTITLE18=Faster (George Harrison)
TTITLE19=Narrative
TTITLE20=Goodnight Tonight (Paul McCartney And Wings)
EXTD=
EXTT0=
EXTT1=
EXTT2=
EXTT3=
EXTT4=
EXTT5=
EXTT6=
EXTT7=
EXTT8=
EXTT9=
EXTT10=
EXTT11=
EXTT12=
EXTT13=
EXTT14=
EXTT15=
EXTT16=
EXTT17=
EXTT18=
EXTT19=
EXTT20=
PLAYORDER=
